<svg id="Layer_1" data-name="Layer 1" xmlns="http://www.w3.org/2000/svg" viewBox="0 0 300 300"><defs><style>.cls-1{fill:#500060;}.cls-2{fill:#fff;}</style></defs><rect class="cls-1" width="300" height="300" rx="37.17"/><path class="cls-2" d="M124.85,163.41V207L31,113.11H59.39l45.34,45.34v-43.6l43.59,43.6V113.11h20.12V207Z"/><path class="cls-2" d="M175.15,93h20.12v28.44a47.16,47.16,0,0,1,60,5.43,47,47,0,0,1,0,66.4,47,47,0,0,1-66.4,0,45.22,45.22,0,0,1-13.75-33.2Zm28,48.09a26.87,26.87,0,1,0,19-7.85A25.86,25.86,0,0,0,203.12,141.08Z"/><path class="cls-2" d="M234.79,157.91a2.15,2.15,0,1,0,1.53.63A2.08,2.08,0,0,0,234.79,157.91Z"/><path class="cls-2" d="M218.63,157.91a2.06,2.06,0,0,0-1.52.63,2.14,2.14,0,0,0,0,3.05,2.06,2.06,0,0,0,1.52.63,2.16,2.16,0,1,0,0-4.31Z"/><path class="cls-2" d="M222.1,137a23.06,23.06,0,1,0,23.06,23.06A23.05,23.05,0,0,0,222.1,137Zm-7.77,26.83h-8.7l5.93-5.93h-4.77v-1.62h8.67l-5.93,5.93h4.8Zm7-1.1a3.78,3.78,0,1,1,1.1-2.66A3.64,3.64,0,0,1,221.3,162.73Zm9.18,1.11h-1.61v-3h-4.31v3h-1.62v-7.55h1.62v3h4.31v-3h1.61Zm7-1.11a3.75,3.75,0,1,1,1.11-2.66A3.61,3.61,0,0,1,237.46,162.73Z"/></svg>